<svg width="72" height="40" viewBox="0 0 72 40" fill="none" xmlns="http://www.w3.org/2000/svg">
<path d="M20.1013 36.7458C19.9882 36.8674 19.9429 36.9434 19.8223 37.065L19.9731 37.2322C20.1442 37.4162 20.2647 37.6419 20.3229 37.8871C20.3811 38.1323 20.3749 38.3886 20.305 38.6306C20.305 38.6306 20.4634 38.547 20.5539 38.2582C20.5989 38.042 20.5965 37.8184 20.5471 37.6032C20.4976 37.3879 20.4021 37.1861 20.2673 37.0118C20.2174 36.9198 20.162 36.831 20.1013 36.7458Z" fill="#061F2F"/>
<path d="M20.901 30.8179C20.6163 31.0239 20.3191 31.2118 20.011 31.3803C20.3059 31.5381 20.5883 31.7185 20.8558 31.9199C20.9312 31.9655 20.5993 32.4671 20.2675 32.6799C19.9356 32.8927 19.5132 33.2499 19.1814 33.5387C18.7831 33.8182 18.4614 34.1947 18.2461 34.633C18.155 34.8713 18.1448 35.1334 18.2171 35.3781C18.2894 35.6229 18.4402 35.8366 18.6459 35.9858C18.8043 36.115 19.0607 36.4038 19.1965 36.5254C19.1965 36.4494 19.4303 36.3126 19.4981 36.1606C18.7439 35.5374 18.2989 34.7774 19.5962 34.0935C19.9507 33.8351 20.3504 33.5919 20.7502 33.2727C20.967 33.1058 21.1666 32.9174 21.346 32.7103C21.4889 32.5737 21.5897 32.3987 21.6366 32.206C21.6834 32.0133 21.6741 31.811 21.61 31.6235C21.5446 31.4449 21.444 31.2816 21.3144 31.1431C21.1848 31.0047 21.0288 30.8941 20.8558 30.8179" fill="#061F2F"/>
<path d="M21.9495 24.9355C21.8967 24.9355 20.7427 25.4219 20.245 25.6575L20.9615 25.8703C21.0933 25.9049 21.2219 25.9507 21.3461 26.0071C21.3169 26.0481 21.2813 26.084 21.2405 26.1135C21.0592 26.2772 20.8496 26.406 20.6221 26.4935C20.0866 26.7519 19.5209 27.0027 18.9778 27.2535C18.4348 27.5043 17.8767 27.6335 17.2884 28.439C17.1666 28.6572 17.1184 28.9092 17.1511 29.1573C17.1837 29.4054 17.2954 29.636 17.4694 29.8146C17.6868 30.0673 17.9412 30.2851 18.2236 30.4606L18.4951 30.6278C18.7893 30.3922 19.1287 30.2782 19.4304 30.073C19.1966 29.9362 18.9628 29.807 18.7516 29.655C18.299 29.3814 17.9973 28.895 18.1482 28.9558C18.527 28.6352 18.955 28.3785 19.4153 28.1958C19.9508 27.9526 20.5014 27.7247 21.0671 27.4359C21.4107 27.3036 21.7295 27.1134 22.0099 26.8735C22.1808 26.7613 22.3199 26.6062 22.4135 26.4235C22.5071 26.2408 22.5518 26.0367 22.5435 25.8313C22.5351 25.6259 22.4739 25.4261 22.3658 25.2518C22.2577 25.0774 22.1064 24.9344 21.9269 24.8367" fill="#061F2F"/>
<path d="M22.9301 18.9011C22.625 18.7481 22.31 18.6161 21.9873 18.5059C21.3516 18.8539 20.6911 19.1536 20.0112 19.4027C20.3506 19.5395 20.7051 19.6687 21.0897 19.8055C21.497 19.9365 21.8973 20.0887 22.289 20.2614L22.5756 20.4058C22.4398 20.459 22.289 20.5046 22.1457 20.5502C21.6705 20.6794 21.1576 20.7782 20.6372 20.8694C19.4136 20.936 18.2111 21.219 17.0848 21.7054C16.6922 21.8811 16.3573 22.1658 16.1194 22.5262C16.0342 22.6743 15.9807 22.8388 15.9625 23.0089C15.9444 23.1791 15.9618 23.3513 16.0138 23.5142C16.1129 23.7578 16.265 23.976 16.4588 24.1526C16.7377 24.383 17.0443 24.577 17.3714 24.7302C17.7211 24.6369 18.0619 24.5122 18.3896 24.3578L18.5932 24.3198L19.1665 24.0842L18.7139 23.9322C18.2148 23.7744 17.7456 23.5329 17.3261 23.2178C17.4425 23.1251 17.569 23.046 17.7032 22.9822C18.7219 22.6124 19.7895 22.3972 20.871 22.3438C21.4401 22.2687 22.0042 22.1596 22.5605 22.017C22.8468 21.9382 23.1287 21.8444 23.4052 21.7358C23.6462 21.6596 23.8643 21.5236 24.0396 21.3404C24.2149 21.1572 24.3417 20.9325 24.4084 20.687C24.6271 19.7599 23.1639 18.9999 22.9301 18.9011Z" fill="#061F2F"/>
<path d="M20.4032 33.7212C20.2372 33.8656 19.9883 34.1088 19.8978 34.162C21.6552 35.188 19.483 36.1076 19.0682 37.012C18.9347 37.1869 18.8405 37.3889 18.7924 37.6042C18.7442 37.8194 18.7431 38.0427 18.7891 38.2584C18.8796 38.5472 19.0229 38.6384 19.0305 38.6308C18.9663 38.3905 18.9616 38.1381 19.0168 37.8956C19.072 37.6531 19.1855 37.428 19.3472 37.24C19.7626 36.7883 20.2114 36.3691 20.6898 35.986C20.8882 35.8307 21.034 35.6171 21.1069 35.3748C21.1799 35.1326 21.1764 34.8734 21.0971 34.6332C20.9197 34.2761 20.6613 33.9663 20.3428 33.7288" fill="#061F2F"/>
<path d="M21.2105 27.6638C21.2105 27.6638 20.3733 28.1122 19.9886 28.287C20.4196 28.4527 20.8218 28.6861 21.1803 28.9786C21.3236 28.9406 21.0295 29.4042 20.5769 29.6778C20.1244 29.9514 19.6492 30.225 19.1892 30.491C18.7291 30.757 18.0503 30.7494 17.7184 31.6234C17.6641 31.8095 17.6629 32.0073 17.7149 32.1942C17.7669 32.381 17.8701 32.5493 18.0126 32.6798C18.1919 32.8869 18.3916 33.0753 18.6084 33.2422L18.8347 33.417L19.521 32.999L19.0911 32.6798C18.7593 32.4518 18.4274 31.9198 18.4953 31.9198C18.8454 31.6896 19.2137 31.4888 19.5964 31.3194C20.0792 31.061 20.5845 30.8406 21.1049 30.5062C21.389 30.333 21.6437 30.1149 21.8591 29.8602C22.0354 29.6832 22.1493 29.4528 22.1833 29.2044C22.2174 28.956 22.1697 28.7032 22.0477 28.4846C21.8291 28.1554 21.5372 27.8822 21.1954 27.6866" fill="#061F2F"/>
<path d="M22.8318 22.0398C22.4471 22.1842 20.9161 22.4882 20.5691 22.5642C20.9545 22.636 21.3295 22.756 21.6854 22.9214C21.8196 22.9852 21.9461 23.0642 22.0625 23.157C21.6421 23.4705 21.1732 23.7118 20.6747 23.8714C20.1392 24.069 19.5509 24.2134 18.9475 24.4034C18.6458 24.4946 18.3517 24.5858 18.0424 24.6922C17.7332 24.7986 17.2882 24.7834 16.9337 25.4522C16.8109 25.7136 16.7852 26.0108 16.8613 26.2897C16.9374 26.5686 17.1103 26.8108 17.3485 26.9722C17.5735 27.1706 17.828 27.3322 18.1028 27.451C18.5327 27.261 18.9777 27.1014 19.4076 26.919L19.5207 26.8506L18.7665 26.4934C18.5401 26.4071 18.3307 26.281 18.148 26.121C18.1085 26.0872 18.0731 26.049 18.0424 26.007C18.1661 25.9494 18.2949 25.9036 18.4271 25.8702C18.7137 25.779 19.0003 25.6954 19.2945 25.6194C19.8752 25.4522 20.4786 25.3154 21.1046 25.1026C21.7758 24.9036 22.4048 24.5816 22.96 24.1526C23.1538 23.9759 23.3059 23.7578 23.405 23.5142C23.457 23.3512 23.4744 23.1791 23.4562 23.0089C23.4381 22.8387 23.3846 22.6743 23.2994 22.5262C23.1835 22.3415 23.0383 22.1772 22.8695 22.0398" fill="#061F2F"/>
<path d="M24.054 12.7908C23.6553 12.5766 23.2153 12.4521 22.7642 12.426C22.455 12.3804 21.648 12.1752 21.3765 12.3652C21.1049 12.5552 21.3764 13.2696 21.6027 13.4824C22.2522 13.9875 22.9923 14.3617 23.7824 14.5844C24.0615 14.6832 24.7705 15.086 24.1973 15.4812C23.6498 15.8345 23.0717 16.1372 22.4701 16.3856C22.0553 16.5756 21.1577 16.9784 19.8982 17.5104C19.2646 17.7688 18.5405 18.0728 17.7486 18.3616C17.2965 18.5165 16.8534 18.6966 16.4212 18.9011C16.1798 19.0151 14.709 19.7219 14.9806 20.6263C15.0462 20.8732 15.1725 21.0994 15.3478 21.2841C15.5231 21.4687 15.7418 21.6058 15.9837 21.6827L16.5267 21.8651C16.5583 21.8285 16.5937 21.7953 16.6323 21.7663C17.1304 21.3549 17.6906 21.0265 18.2916 20.7935C17.9145 20.7175 17.5374 20.6415 17.2056 20.5503C17.0622 20.5047 16.9114 20.4591 16.7756 20.4059L17.0622 20.2615C17.4539 20.0888 17.8542 19.9366 18.2615 19.8055C19.0987 19.5091 19.8378 19.2127 20.4789 18.9543C21.7687 18.43 22.6888 18.0272 23.1187 17.8372C24.0432 17.477 24.8794 16.9196 25.57 16.2032C25.7581 15.9556 25.8805 15.6637 25.9253 15.3551C25.9702 15.0466 25.9362 14.7316 25.8264 14.44C25.4497 13.6931 24.8213 13.1057 24.054 12.7832" fill="#061F2F"/>
<path d="M19.3473 0C18.9789 0 18.6187 0.110095 18.3123 0.316363C18.006 0.522631 17.7672 0.815808 17.6262 1.15882C17.4852 1.50183 17.4483 1.87927 17.5202 2.24341C17.5921 2.60755 17.7695 2.94203 18.03 3.20456C18.2906 3.46709 18.6225 3.64588 18.9839 3.71831C19.3453 3.79074 19.7198 3.75356 20.0602 3.61148C20.4007 3.4694 20.6916 3.2288 20.8963 2.9201C21.101 2.6114 21.2103 2.24846 21.2103 1.87719C21.2083 1.37994 21.0114 0.903635 20.6624 0.552027C20.3135 0.200418 19.8408 0.00200101 19.3473 0Z" fill="#061F2F"/>
<path d="M19.9434 4.0204H18.7065C18.6697 4.01396 18.6319 4.01572 18.5958 4.02555C18.5597 4.03538 18.5262 4.05304 18.4976 4.07729C18.469 4.10155 18.446 4.13181 18.4302 4.16596C18.4144 4.20011 18.4062 4.23733 18.4062 4.275C18.4062 4.31267 18.4144 4.34989 18.4302 4.38404C18.446 4.41819 18.469 4.44845 18.4976 4.47271C18.5262 4.49696 18.5597 4.51462 18.5958 4.52445C18.6319 4.53428 18.6697 4.53604 18.7065 4.5296H19.9434C19.9803 4.53604 20.0181 4.53428 20.0542 4.52445C20.0902 4.51462 20.1238 4.49696 20.1524 4.47271C20.181 4.44845 20.204 4.41819 20.2198 4.38404C20.2355 4.34989 20.2437 4.31267 20.2437 4.275C20.2437 4.23733 20.2355 4.20011 20.2198 4.16596C20.204 4.13181 20.181 4.10155 20.1524 4.07729C20.1238 4.05304 20.0902 4.03538 20.0542 4.02555C20.0181 4.01572 19.9803 4.01396 19.9434 4.0204Z" fill="#061F2F"/>
<path d="M19.3474 4.80322C19.1212 4.80322 18.9326 4.87922 18.9326 5.21362L19.0005 17.6243L19.4229 17.3963C19.4872 17.3657 19.5559 17.3452 19.6265 17.3355H19.7019L19.7472 5.25162C19.7472 4.91722 19.5662 4.84122 19.3324 4.84122" fill="#061F2F"/>
<path d="M19.7167 37.2397L19.4678 37.3841V39.7857C19.4781 39.8457 19.5091 39.9001 19.5553 39.9393C19.6016 39.9785 19.66 40 19.7204 40C19.7809 40 19.8393 39.9785 19.8856 39.9393C19.9318 39.9001 19.9628 39.8457 19.9731 39.7857V37.3385C19.9237 37.333 19.8755 37.3202 19.8298 37.3005C19.7859 37.2888 19.7431 37.2735 19.7016 37.2549" fill="#061F2F"/>
<path d="M19.3471 24.1754C19.554 24.0929 19.7734 24.0467 19.9958 24.0386V22.7314C19.7771 22.7743 19.5547 22.7946 19.332 22.7922L19.3471 24.1754Z" fill="#061F2F"/>
<path d="M19.7469 31.6082C19.6111 31.6614 19.4829 31.7222 19.3472 31.7678V33.0065L19.3924 33.0521V33.0901C19.5082 33.0191 19.6324 32.963 19.762 32.9229H19.845V31.6614H19.762H19.6639" fill="#061F2F"/>
<path d="M19.3473 34.7621V36.0237L19.4228 36.0997L19.4831 36.1453C19.6031 36.0728 19.7458 36.0484 19.8828 36.0769V34.4961H19.6641C19.551 34.5949 19.4454 34.7013 19.3247 34.7925" fill="#061F2F"/>
<path d="M19.8829 28.6214C19.8092 28.5892 19.7426 28.5428 19.6868 28.4846L19.3398 28.591V30.0502C19.4226 30.0735 19.498 30.118 19.5586 30.1794C19.6712 30.14 19.7874 30.1119 19.9055 30.0958V28.6518H19.8452L19.8829 28.6214Z" fill="#061F2F"/>
<path d="M19.3476 26.8128C19.3864 26.8478 19.4195 26.8889 19.4456 26.9344C19.4497 26.9545 19.4497 26.9751 19.4456 26.9952C19.5887 26.9391 19.7347 26.8909 19.8831 26.8508H19.9509V25.7412C19.7398 25.8096 19.5286 25.8628 19.3174 25.9236L19.3476 26.8128Z" fill="#061F2F"/>
<path d="M19.6338 19.8588H19.4151L19.2793 19.912V21.1052C19.4679 21.052 19.6564 21.0064 19.8374 20.9456C19.8799 20.9384 19.9232 20.9384 19.9656 20.9456V19.8132C19.8577 19.8441 19.746 19.8594 19.6338 19.8588Z" fill="#061F2F"/>
<path d="M16.6849 7.48586C15.9306 7.12106 16.6095 6.60426 16.8734 6.13307C17.2108 5.58199 17.3739 4.94054 17.3411 4.29388C17.2181 3.93293 16.9976 3.6137 16.7045 3.37204C16.4114 3.13038 16.0572 2.97588 15.6817 2.92589C15.3185 2.88042 14.9499 2.91314 14.6001 3.02188C14.2504 3.13062 13.9275 3.3129 13.6529 3.55668C12.988 4.01677 12.2778 4.40644 11.5335 4.71947C8.87859 5.79867 4.86608 7.53906 2 7.81266C2.33021 8.24902 2.74274 8.61532 3.21389 8.89052C3.68503 9.16572 4.20551 9.34438 4.7454 9.41625C4.6926 9.93304 5.65802 10.4726 6.05776 10.6094C6.61695 10.8021 7.22874 10.7666 7.76232 10.5106C7.92395 10.7538 8.13264 10.9615 8.37587 11.1214C8.61909 11.2813 8.89186 11.39 9.17781 11.4411C9.46375 11.4922 9.757 11.4846 10.04 11.4187C10.3229 11.3529 10.5898 11.2301 10.8245 11.0578C10.8848 11.529 11.7145 11.8178 12.0841 11.871C12.6598 11.9496 13.2459 11.8708 13.7811 11.643C14.1808 11.5518 14.3468 11.8102 14.7767 11.909C15.2218 12.0356 15.6985 11.981 16.1041 11.757C16.3078 11.6506 16.2323 11.5898 16.4435 11.605C16.6547 11.6202 16.7678 11.7722 16.9187 11.795C17.3411 11.8558 17.6201 11.5442 17.8539 11.2478C18.1716 10.7476 18.425 10.2087 18.6082 9.64425V7.59986C17.9761 7.68398 17.3339 7.64788 16.715 7.49346" fill="#061F2F"/>
<path d="M24.9513 3.55668C24.6766 3.3129 24.3538 3.13062 24.004 3.02188C23.6543 2.91314 23.2856 2.88042 22.9224 2.92589C22.5474 2.97465 22.1936 3.12882 21.9014 3.37075C21.6093 3.61268 21.3907 3.93259 21.2706 4.29388C21.2316 4.94013 21.3923 5.58268 21.7307 6.13307C21.9947 6.60426 22.6433 7.12106 21.9193 7.48586C21.325 7.63282 20.7094 7.67143 20.1016 7.59986V9.79624C20.2687 10.3097 20.4993 10.8 20.7879 11.2554C20.8778 11.4236 21.012 11.5636 21.1756 11.6602C21.3392 11.7567 21.526 11.806 21.7156 11.8026C21.8665 11.8026 22.0626 11.6278 22.1908 11.6126C22.319 11.5974 22.3265 11.6582 22.5302 11.7646C22.9358 11.9886 23.4125 12.0432 23.8576 11.9166C24.2875 11.8178 24.461 11.5594 24.8532 11.6506C25.3885 11.8781 25.9745 11.9568 26.5502 11.8786C26.9198 11.795 27.757 11.5366 27.8098 11.0654C28.0445 11.2377 28.3114 11.3605 28.5943 11.4263C28.8773 11.4922 29.1706 11.4998 29.4565 11.4487C29.7424 11.3976 30.0152 11.2889 30.2584 11.129C30.5017 10.9691 30.7104 10.7614 30.872 10.5182C31.394 10.7736 31.9934 10.8171 32.5464 10.6398C32.9537 10.503 33.9191 9.96344 33.8587 9.44664C34.3986 9.37478 34.9191 9.19611 35.3903 8.92092C35.8614 8.64572 36.2739 8.27941 36.6041 7.84305C33.7381 7.56946 29.7256 5.82907 27.0707 4.74987C26.3271 4.43516 25.6171 4.04559 24.9513 3.58708" fill="#061F2F"/>
<path d="M14.7766 15.6634C14.211 15.2682 14.9124 14.9034 15.1915 14.7666C15.9834 14.5503 16.7263 14.1812 17.3787 13.6798C17.6125 13.467 17.9746 12.8286 17.605 12.5626C17.2354 12.2966 16.5189 12.5626 16.2097 12.6234C15.7609 12.6487 15.3231 12.7733 14.9275 12.9882C14.1591 13.3121 13.5287 13.8988 13.1475 14.645C13.0391 14.9356 13.0058 15.2491 13.0506 15.5562C13.0955 15.8633 13.2171 16.1538 13.4039 16.4006C14.095 17.12 14.9343 17.6778 15.8627 18.0346L16.9714 18.521C17.6224 18.2525 18.2593 17.9506 18.8796 17.6166C17.7257 17.1302 16.896 16.7654 16.5114 16.583C15.9082 16.3327 15.3278 16.0301 14.7766 15.6786" fill="#061F2F"/>
<path d="M37.0716 22.9823H34.8843V19.6611H32.3501V22.9823H30.1553V14.8428H32.3501V17.8828H34.8843V14.8428H37.0716V22.9823Z" fill="#061F2F"/>
<path d="M39.5381 22.9823V14.8428H41.7329V22.9823H39.5381Z" fill="#061F2F"/>
<path d="M50.0521 17.4345C50.0758 17.8219 50.0175 18.21 49.8809 18.5729C49.7444 18.9359 49.5328 19.2654 49.2601 19.5397C48.6294 20.0741 47.8202 20.3459 46.9974 20.2997H46.3865V22.9976H44.1992V14.8429H46.9974C47.82 14.7825 48.6366 15.0226 49.2978 15.5193C49.5558 15.7628 49.7572 16.0607 49.8876 16.3918C50.018 16.7229 50.0742 17.079 50.0521 17.4345ZM46.3789 18.4909H46.7711C47.0493 18.4994 47.3198 18.3986 47.5254 18.2097C47.6249 18.1111 47.7025 17.9924 47.7532 17.8614C47.8039 17.7304 47.8265 17.5901 47.8195 17.4497C47.8195 16.9025 47.5103 16.6289 46.9069 16.6289H46.3488L46.3789 18.4909Z" fill="#061F2F"/>
<path d="M56.5382 22.9822L56.146 21.4622H53.5213L53.1065 22.9822H50.708L53.3478 14.8123H56.2591L58.9291 22.9822H56.5382ZM55.6859 19.6534L55.339 18.3158C55.2636 18.0194 55.158 17.6394 55.0448 17.1682C54.9317 16.697 54.8563 16.355 54.8186 16.1498C54.8186 16.3398 54.7205 16.6514 54.6225 17.0846C54.5244 17.5178 54.3057 18.3766 53.9738 19.6534H55.6859Z" fill="#061F2F"/>
<path d="M66.0416 22.9822L65.6419 21.4622H63.0172L62.6099 22.9822H60.2114L62.8437 14.8123H65.755L68.425 22.9822H66.0416ZM65.1893 19.6534L64.8424 18.3158C64.7594 18.0194 64.6614 17.6394 64.5483 17.1682C64.4351 16.697 64.3522 16.355 64.3144 16.1498C64.3144 16.3398 64.2164 16.6514 64.1183 17.0846C64.0203 17.5178 63.8091 18.3766 63.4697 19.6534H65.1893Z" fill="#061F2F"/>
<path d="M32.0182 26.5997C31.7817 26.5895 31.5458 26.6327 31.3279 26.7261C31.11 26.8194 30.9155 26.9606 30.7587 27.1393C30.4311 27.5543 30.2672 28.0767 30.2986 28.6061C30.2569 29.1506 30.4153 29.6915 30.7436 30.1261C30.9032 30.3045 31.1007 30.4443 31.3214 30.5351C31.5421 30.6259 31.7803 30.6653 32.0182 30.6505C32.4095 30.6391 32.7976 30.5752 33.1722 30.4605V30.9621C32.7719 31.0997 32.3505 31.164 31.9277 31.1521C31.6219 31.1694 31.316 31.1199 31.031 31.0071C30.7459 30.8943 30.4883 30.7208 30.2759 30.4985C29.8605 29.9715 29.6536 29.3082 29.6952 28.6365C29.6842 28.1797 29.7798 27.7268 29.9743 27.3141C30.1517 26.9489 30.4325 26.6447 30.7813 26.4401C31.1615 26.2271 31.5909 26.1196 32.0258 26.1285C32.4861 26.1196 32.9425 26.2158 33.3608 26.4097L33.1194 26.8961C32.7781 26.7177 32.4023 26.6165 32.0182 26.5997Z" fill="#061F2F"/>
<path d="M38.7762 28.6291C38.8183 29.295 38.6141 29.9529 38.203 30.4759C37.7606 30.9032 37.1715 31.1418 36.5587 31.1418C35.9459 31.1418 35.3569 30.9032 34.9145 30.4759C34.4958 29.9507 34.2885 29.286 34.3338 28.6139C34.293 27.947 34.5001 27.2887 34.9145 26.7671C35.1268 26.5425 35.3854 26.3676 35.6721 26.2547C35.9588 26.1417 36.2666 26.0936 36.5738 26.1135C36.8768 26.0969 37.1798 26.1476 37.4613 26.2618C37.7428 26.376 37.9959 26.5511 38.203 26.7747C38.6159 27.2997 38.8202 27.9607 38.7762 28.6291ZM34.9145 28.6291C34.8723 29.1691 35.0191 29.7068 35.3293 30.1491C35.4813 30.3219 35.6702 30.4576 35.882 30.5458C36.0937 30.634 36.3225 30.6725 36.5512 30.6583C36.779 30.6748 37.0075 30.6374 37.2183 30.5489C37.4292 30.4605 37.6166 30.3236 37.7655 30.1491C38.0758 29.7068 38.2225 29.1691 38.1803 28.6291C38.2258 28.0889 38.0787 27.55 37.7655 27.1091C37.6152 26.9384 37.4287 26.804 37.2198 26.7158C37.0108 26.6277 36.7849 26.5881 36.5587 26.5999C36.3282 26.5855 36.0975 26.6246 35.8844 26.7142C35.6712 26.8038 35.4813 26.9415 35.3293 27.1167C35.0178 27.5555 34.8709 28.0914 34.9145 28.6291Z" fill="#061F2F"/>
<path d="M42.3362 31.0762L40.692 26.7518C40.692 27.0938 40.7372 27.5118 40.7372 27.9678V31.0762H40.2168V26.197H41.0691L42.5775 30.225L44.086 26.197H44.9911V31.0762H44.4329V27.9298C44.4329 27.5726 44.4329 27.1698 44.4782 26.7518L42.8264 31.0762H42.3362Z" fill="#061F2F"/>
<path d="M49.7354 27.6182C49.7482 27.8352 49.709 28.052 49.621 28.2505C49.533 28.4489 49.3989 28.6231 49.23 28.7582C48.8101 29.0487 48.3052 29.188 47.797 29.1534H47.2539V31.0762H46.6958V26.197H47.9478C49.132 26.197 49.7354 26.6682 49.7354 27.6182ZM47.2539 28.667H47.7668C48.1426 28.7002 48.5194 28.6152 48.8454 28.4238C48.9588 28.3343 49.0489 28.2183 49.108 28.0859C49.1671 27.9536 49.1935 27.8087 49.1848 27.6638C49.1937 27.5266 49.1696 27.3893 49.1145 27.2636C49.0593 27.1378 48.9747 27.0274 48.868 26.9418C48.5726 26.7646 48.2305 26.6824 47.8875 26.7062H47.2539V28.667Z" fill="#061F2F"/>
<path d="M51.0854 31.0762V26.197H51.6511V30.5594H53.7931V31.0762H51.0854Z" fill="#061F2F"/>
<path d="M54.9546 31.0762V26.197H55.5504V31.0762H54.9546Z" fill="#061F2F"/>
<path d="M60.2264 31.0763L59.6231 29.5563H57.6847L57.0888 31.0763H56.5156L58.4314 26.1743H58.9065L60.8298 31.0763H60.2264ZM59.4722 29.0091L58.9065 27.4891C58.8387 27.2991 58.7632 27.0635 58.6803 26.7899C58.6283 27.0274 58.5603 27.261 58.4766 27.4891L57.9034 29.0091H59.4722Z" fill="#061F2F"/>
<path d="M65.6045 31.0762H64.9634L62.3387 26.9798C62.3387 27.4586 62.3915 27.8994 62.3915 28.3022V31.0762H61.8711V26.197H62.5047L65.152 30.2782C65.152 30.2174 65.152 30.0198 65.152 29.693C65.152 29.3662 65.152 29.1382 65.152 28.9938V26.197H65.68L65.6045 31.0762Z" fill="#061F2F"/>
<path d="M68.7648 31.0762H68.2067V26.6986H66.6982V26.197H70.3336V26.6986H68.8252L68.7648 31.0762Z" fill="#061F2F"/>
</svg>
