<svg width="172" height="35" viewBox="0 0 172 35" fill="none" xmlns="http://www.w3.org/2000/svg">
<path d="M0 8.58936H15.7354C30.6924 8.58936 34.2102 19.806 34.2102 27.1121C34.2102 27.1121 27.9314 13.8265 11.1424 13.8265C0 13.8241 0 8.58936 0 8.58936Z" fill="#061F2F"/>
<path d="M34.2104 26.8654V14.4707C34.2104 11.3193 36.7656 8.58936 39.9169 8.58936H52.2902C52.3692 8.58936 50.2595 12.5861 41.9811 12.5861C35.7119 12.5861 34.2104 26.9469 34.2104 26.8678V26.8654Z" fill="#061F2F"/>
<path d="M85.1551 3.52881V7.01344C83.3857 4.97125 82.1103 5.26107 80.3728 5.26107H72.9792V16.2863H83.7218V18.0168H72.9792V32.0693H68.7598V3.52881H85.1551Z" fill="#061F2F"/>
<path d="M121.159 20.3055C121.159 20.912 121.117 21.5151 121.027 21.949H106.286C106.328 27.181 108.981 30.6824 113.027 30.6824C115.943 30.6824 118.593 28.997 119.942 26.0987V30.5534C117.768 31.9372 115.333 32.4984 112.767 32.4984C106.289 32.4984 102.113 28.1325 102.113 21.7748C102.113 15.417 106.286 11.093 112.115 11.093C117.944 11.093 121.162 14.9864 121.162 20.3022L121.159 20.3055ZM112.111 12.9107C108.675 12.9107 106.328 16.1106 106.328 20.2167H117.462C117.549 15.6331 115.329 12.9107 112.111 12.9107Z" fill="#061F2F"/>
<path d="M143.682 20.3055C143.682 20.912 143.64 21.5151 143.551 21.949H128.81C128.852 27.181 131.505 30.6824 135.551 30.6824C138.467 30.6824 141.117 28.997 142.466 26.0987V30.5534C140.292 31.9372 137.857 32.4984 135.291 32.4984C128.81 32.4984 124.637 28.1325 124.637 21.7748C124.637 15.417 128.813 11.093 134.639 11.093C140.465 11.093 143.682 14.9864 143.682 20.3022V20.3055ZM134.639 12.9107C131.202 12.9107 128.855 16.1106 128.855 20.2167H139.989C140.076 15.6331 137.857 12.9107 134.639 12.9107Z" fill="#061F2F"/>
<path d="M156.293 32.5C151.684 32.5 147.162 28.9534 147.162 21.7764C147.162 15.4655 150.99 11.0946 156.251 11.0946C159.599 11.0946 162.425 12.909 163.645 15.6783H163.687V8.50126C163.687 5.82077 163.873 2.24064 162.129 0.5H167.515V26.0115C167.515 28.3905 167.195 30.0758 168.721 32.0627H163.687V27.9097H163.645C162.383 30.7627 159.514 32.4933 156.297 32.4933L156.293 32.4967V32.5ZM151.119 21.7764C151.119 26.6616 153.294 30.0775 157.206 30.0775C161.118 30.0775 163.818 26.6599 163.818 21.7328C163.818 16.8057 161.123 13.4736 157.206 13.4736C153.289 13.4736 151.119 16.8912 151.119 21.7747V21.7764Z" fill="#061F2F"/>
<path d="M96.0339 11.3773C93.1655 11.3773 91.6767 13.3676 90.8953 16.6512H90.8533V11.6789H85.3232C87.4775 12.9102 87.0255 15.6142 87.0255 17.7301V32.2131H92.1321C90.9441 30.6517 90.8533 28.1941 90.8533 26.1619V21.6654C90.8533 17.1236 93.0697 14.3125 95.681 14.3125C96.6825 14.3125 97.7412 14.6827 99.0367 14.6827C101.69 14.6827 102.362 11.6705 102.362 11.6705C98.8267 12.9069 98.4267 11.3723 96.0373 11.3723L96.0339 11.3757V11.3773Z" fill="#061F2F"/>
</svg>
